<svg xmlns="http://www.w3.org/2000/svg" viewBox="0 0 470.49 95.05"><defs></defs><path fill="#43474d" d="M188,89.89c-8.43,0-13.08-4-13.08-11.24v-.46h2.82v.46c0,5.68,3.55,8.68,10.26,8.68s10.21-2.65,10.21-7.68c0-3.81-2.21-6.19-6.57-7.06l-7.41-1.42c-5.9-1.14-8.89-4.36-8.89-9.55,0-6.43,4.53-10,12.76-10s12.66,3.89,12.66,11.24v.46h-2.82v-.46c0-5.79-3.31-8.73-9.84-8.73s-9.84,2.53-9.84,7.31c0,3.87,2.21,6.24,6.57,7.06l7.41,1.42c5.9,1.18,8.89,4.39,8.89,9.55C201.12,86.2,196.46,89.89,188,89.89Z" transform="translate(-38.47 -23.24)"></path><polygon fill="#43474d" points="182.71 66.12 179.89 66.12 179.89 31.43 166.91 31.43 166.91 28.93 195.74 28.93 195.74 31.43 182.71 31.43 182.71 66.12"></polygon><path fill="#43474d" d="M253.5,51.64c-8.91,0-14.23,5-14.23,13.29V76.55c0,8.35,5.3,13.34,14.18,13.34,9,0,14.23-4.86,14.23-13.34V64.93C267.68,56.61,262.38,51.64,253.5,51.64Zm11.36,24.91c0,6.85-4.16,10.78-11.41,10.78s-11.37-3.93-11.37-10.78V64.93c0-6.75,4.27-10.78,11.42-10.78s11.36,4,11.36,10.78Z" transform="translate(-38.47 -23.24)"></path><polygon fill="#43474d" points="268.46 66.12 265.89 66.12 265.83 66.03 244.44 34.25 244.44 66.12 241.62 66.12 241.62 28.93 244.24 28.93 244.3 29.02 265.64 60.8 265.64 28.93 268.46 28.93 268.46 66.12"></polygon><polygon fill="#43474d" points="305.24 66.12 282.08 66.12 282.08 28.93 305.24 28.93 305.24 31.43 284.9 31.43 284.9 46.22 302.61 46.22 302.61 48.77 284.9 48.77 284.9 63.56 305.24 63.56 305.24 66.12"></polygon><polygon fill="#43474d" points="470.49 66.12 467.92 66.12 467.86 66.03 446.47 34.25 446.47 66.12 443.65 66.12 443.65 28.93 446.27 28.93 446.33 29.02 467.67 60.8 467.67 28.93 470.49 28.93 470.49 66.12"></polygon><rect fill="#43474d" x="427.32" y="28.93" width="2.82" height="37.19"></rect><path fill="#43474d" d="M442.37,52.3l-.05-.13h-3.26l-14.4,36.92-.11.27h2.9l4-10.25h18.29l4,10.25h3.06ZM432.28,76.56l8.33-21.07,8.33,21.07Z" transform="translate(-38.47 -23.24)"></path><polygon fill="#43474d" points="380.6 66.12 357.44 66.12 357.44 28.93 360.25 28.93 360.25 63.56 380.6 63.56 380.6 66.12"></polygon><polygon fill="#43474d" points="329.48 59.76 326.98 59.76 326.98 48.67 316.21 48.67 316.21 46.27 326.98 46.27 326.98 35.13 329.48 35.13 329.48 46.27 340.36 46.27 340.36 48.67 329.48 48.67 329.48 59.76"></polygon><path fill="#43474d" d="M110.69,49.67l-4.54,5.43c-.42.51-.83,1-1.38,1.08A4.15,4.15,0,0,1,103,56l-.39-.12-.68-.22h0l7.38-7.38-.72-.71v0l-7.36,7.34-.18-.6-.12-.39a4.49,4.49,0,0,1-.25-1.83c.08-.56.57-1,1.1-1.39l5.43-4.51-.72-.71-5.35,4.43a3.38,3.38,0,0,0-1.48,2.08,5.37,5.37,0,0,0,.27,2.28l.12.38c.13.42.24.76.36,1.08l-8,7.94.75.75,7.93-7.92c.33.13.7.25,1.15.39l.39.12a5.52,5.52,0,0,0,1.68.28,4.93,4.93,0,0,0,.55,0,3.38,3.38,0,0,0,2.08-1.48l4.46-5.33h0Z" transform="translate(-38.47 -23.24)"></path><path fill="#43474d" d="M71.56,85.91l8-8-.74-.74-8,8,.07.06a3.88,3.88,0,0,0-2.35-.73,6.83,6.83,0,0,0-4.67,2.12C61.52,89,61,92.27,62.77,94s5,1.25,7.39-1.08c2.18-2.18,2.74-5.22,1.39-7Zm-2.1,6.32a5.86,5.86,0,0,1-4,1.85,2.79,2.79,0,0,1-2-.77c-1.35-1.36-.87-4,1.08-6s4.63-2.43,6-1.08S71.41,90.28,69.46,92.23Z" transform="translate(-38.47 -23.24)"></path><path fill="#43474d" d="M67.46,58.05c-2.55,0-4-1.22-4-3.42v-.29h1.13v.29c0,1.95,1.54,2.37,2.83,2.37,1.86,0,2.81-.7,2.81-2.08,0-1-.59-1.66-1.79-1.9l-2.15-.41c-1.77-.35-2.71-1.36-2.71-2.93,0-2,1.38-3,3.87-3s3.83,1.18,3.83,3.42v.29H70.19v-.29c0-1.58-.91-2.39-2.7-2.39-1.24,0-2.71.35-2.71,2,0,1,.6,1.68,1.78,1.9l2.16.41c1.8.36,2.71,1.35,2.71,2.93C71.43,56.89,70,58.05,67.46,58.05Z" transform="translate(-38.47 -23.24)"></path><polygon fill="#43474d" points="69.86 70.47 61.95 70.47 61.95 59.35 63.08 59.35 63.08 69.41 69.86 69.41 69.86 70.47"></polygon><polygon fill="#43474d" points="48.05 46.99 48.07 15.34 48.07 15.3 47.01 15.29 46.99 46.99 15.34 46.98 15.3 46.98 15.29 48.04 46.99 48.05 46.98 79.71 46.98 79.75 48.04 79.76 48.05 48.05 79.71 48.07 79.75 48.07 79.76 47.01 48.05 46.99"></polygon><path fill="#43474d" d="M86,23.24a47.53,47.53,0,1,0,47.53,47.53A47.58,47.58,0,0,0,86,23.24Zm0,94a46.47,46.47,0,1,1,46.47-46.46A46.51,46.51,0,0,1,86,117.23Z" transform="translate(-38.47 -23.24)"></path><path fill="#43474d" d="M86,27.87a42.9,42.9,0,1,0,42.9,42.9A42.95,42.95,0,0,0,86,27.87Zm0,84.73a41.84,41.84,0,1,1,41.84-41.83A41.88,41.88,0,0,1,86,112.6Z" transform="translate(-38.47 -23.24)"></path></svg>