<svg width="101" height="99" viewBox="0 0 101 99" fill="none" xmlns="http://www.w3.org/2000/svg"> <path d="M9.85365 85.8967C9.46504 85.5664 9.02532 85.3015 8.55171 85.1123C8.07651 84.9207 7.56867 84.8231 7.05629 84.8248C6.84949 84.8243 6.64362 84.8525 6.44454 84.9084C6.23775 84.9645 6.04041 85.0508 5.85892 85.1646C5.68621 85.2757 5.53698 85.4196 5.41971 85.5882C5.30142 85.762 5.24104 85.9688 5.24716 86.179C5.23391 86.4062 5.30254 86.6307 5.44062 86.8117C5.57349 86.9808 5.73444 87.1258 5.91644 87.2404C6.10345 87.3662 6.30545 87.4681 6.51774 87.5437C6.73212 87.6221 6.93081 87.6901 7.11904 87.7476L8.19615 88.0718C8.73373 88.2358 9.25811 88.4403 9.76477 88.6836C10.2322 88.9049 10.6612 89.1997 11.0353 89.5567C11.3998 89.9084 11.6896 90.3298 11.8876 90.7959C12.1045 91.3393 12.2094 91.9209 12.1961 92.5057C12.1974 93.3104 12.0776 94.1106 11.8406 94.8796C11.6083 95.6607 11.1476 96.3546 10.5177 96.8717C9.88455 97.41 9.14524 97.8091 8.34779 98.0429C7.55899 98.2793 6.73988 98.3991 5.91644 98.3985C4.8967 98.4 3.88335 98.2376 2.91516 97.9175C1.9497 97.5914 1.03851 97.1226 0.211914 96.5266L2.02105 93.128C2.54785 93.5857 3.12497 93.9822 3.74129 94.3096C4.3631 94.6432 5.0592 94.8141 5.7648 94.8064C6.01178 94.8057 6.2577 94.7741 6.49682 94.7123C6.72893 94.6502 6.94959 94.5513 7.15041 94.4194C7.34674 94.2836 7.50947 94.1048 7.62622 93.8966C7.75264 93.6699 7.81584 93.4135 7.80923 93.1541C7.81815 92.8776 7.72086 92.6082 7.53734 92.4012C7.3492 92.1884 7.12426 92.0113 6.87329 91.8783C6.60645 91.7322 6.32408 91.6164 6.03147 91.5332L5.24716 91.2927C4.58834 91.1097 3.98704 90.911 3.44849 90.7018C2.94865 90.5281 2.4806 90.2738 2.06288 89.9489C1.66945 89.6096 1.36289 89.1811 1.16877 88.6992C0.941445 88.0805 0.836667 87.4234 0.860274 86.7646C0.849202 85.9982 0.99142 85.2374 1.27857 84.5267C1.53836 83.8771 1.93415 83.2905 2.43934 82.8065C2.94562 82.3241 3.54529 81.9504 4.20142 81.7085C4.92257 81.4425 5.68644 81.3114 6.45499 81.3215C6.88192 81.3236 7.3082 81.355 7.7308 81.4156C8.6256 81.5459 9.50268 81.7774 10.3452 82.1058C10.7532 82.2504 11.1499 82.4252 11.5321 82.6287L9.85365 85.8967Z" fill="#0B1C40"></path> <path d="M19.5577 92.2024H19.5995L22.9982 81.745H26.355L29.5393 92.2024H29.5811L32.6347 81.745H37.0268L31.8399 97.954H27.5472L24.708 88.5423H24.6609L21.4766 97.954H17.1943L12.3525 81.745H16.7447L19.5577 92.2024Z" fill="#0B1C40"></path> <path d="M45.5486 81.1856C46.6988 81.1835 47.8398 81.3908 48.9158 81.7973C49.9706 82.1912 50.9437 82.7761 51.7864 83.5228C52.6201 84.2631 53.2974 85.1627 53.7785 86.1685C54.2801 87.2195 54.5341 88.3714 54.521 89.5358C54.5357 90.7723 54.3083 91.9997 53.8517 93.1488C53.4259 94.2101 52.7871 95.1729 51.9746 95.9776C51.1676 96.7857 50.2005 97.4162 49.1354 97.8285C46.8122 98.7068 44.2483 98.7068 41.9251 97.8285C40.8613 97.4136 39.8947 96.7834 39.0859 95.9776C38.2811 95.1697 37.6479 94.2076 37.2244 93.1488C36.7696 91.9993 36.544 90.7719 36.5604 89.5358C36.5571 88.3689 36.8218 87.2169 37.3343 86.1685C37.8121 85.1621 38.4879 84.2623 39.3212 83.5228C40.1658 82.7761 41.1406 82.1912 42.197 81.7973C43.268 81.3927 44.4036 81.1854 45.5486 81.1856ZM45.5486 85.2744C44.938 85.271 44.3331 85.392 43.7708 85.63C43.2356 85.8568 42.7451 86.1773 42.3224 86.5764C41.908 86.9644 41.5709 87.4275 41.329 87.9411C41.0872 88.4453 40.9621 88.9975 40.963 89.5567C40.9545 90.2196 41.079 90.8774 41.329 91.4913C41.5607 92.06 41.8977 92.5798 42.3224 93.0234C42.7356 93.4501 43.2274 93.7927 43.7708 94.0325C44.3314 94.2741 44.9355 94.3986 45.5459 94.3986C46.1564 94.3986 46.7604 94.2741 47.3211 94.0325C47.8661 93.7929 48.3597 93.4502 48.7747 93.0234C49.1967 92.5887 49.5321 92.0777 49.7629 91.5175C50.0129 90.9035 50.1374 90.2457 50.1289 89.5829C50.1298 89.0237 50.0047 88.4714 49.7629 87.9672C49.5246 87.4528 49.1891 86.9894 48.7747 86.6025C48.3501 86.2034 47.8579 85.8829 47.3211 85.6561C46.7627 85.4087 46.1593 85.2788 45.5486 85.2744Z" fill="#0B1C40"></path> <path d="M64.4663 81.1856C65.6165 81.1836 66.7576 81.3909 67.8336 81.7974C68.8899 82.1912 69.8648 82.7761 70.7094 83.5229C71.5427 84.2623 72.2184 85.1622 72.6963 86.1686C73.1979 87.2195 73.4519 88.3714 73.4388 89.5359C73.4551 90.772 73.2295 91.9994 72.7747 93.1489C72.3512 94.2076 71.7181 95.1698 70.9133 95.9776C70.1044 96.7835 69.1378 97.4137 68.0741 97.8286C65.7509 98.7068 63.187 98.7068 60.8637 97.8286C59.7987 97.4162 58.8316 96.7858 58.0245 95.9776C57.2177 95.1715 56.5843 94.2088 56.1631 93.1489C55.7065 91.9997 55.4791 90.7723 55.4938 89.5359C55.4807 88.3714 55.7347 87.2195 56.2363 86.1686C56.7174 85.1627 57.3947 84.2632 58.2284 83.5229C59.0711 82.7762 60.0442 82.1912 61.099 81.7974C62.175 81.3909 63.316 81.1836 64.4663 81.1856ZM64.4663 85.2745C63.8574 85.2706 63.2541 85.3916 62.6938 85.63C62.1563 85.8555 61.6639 86.1761 61.2402 86.5764C60.8258 86.9633 60.4902 87.4267 60.252 87.9411C60.0102 88.4453 59.8851 88.9976 59.8859 89.5568C59.8775 90.2196 60.002 90.8775 60.252 91.4914C60.4798 92.0609 60.8153 92.5811 61.2402 93.0234C61.6542 93.4514 62.1481 93.7942 62.6938 94.0326C63.2544 94.2741 63.8584 94.3987 64.4689 94.3987C65.0794 94.3987 65.6834 94.2741 66.2441 94.0326C66.7874 93.7928 67.2793 93.4501 67.6924 93.0234C68.1219 92.5894 68.466 92.0786 68.7068 91.5176C68.9543 90.9029 69.0786 90.2455 69.0728 89.5829C69.0712 89.024 68.9462 88.4723 68.7068 87.9673C68.4649 87.4537 68.1278 86.9906 67.7133 86.6026C67.2907 86.2035 66.8002 85.883 66.265 85.6562C65.6981 85.4064 65.0857 85.2765 64.4663 85.2745Z" fill="#0B1C40"></path> <path d="M75.2393 81.7241H81.6915C82.5022 81.7155 83.3102 81.8211 84.0915 82.0378C84.7771 82.2181 85.4157 82.5445 85.9633 82.9947C86.4938 83.4416 86.9082 84.0103 87.1712 84.6522C87.4727 85.4192 87.6185 86.2387 87.5999 87.0626C87.5999 88.9816 87.0771 90.3829 86.115 91.2456C85.1529 92.1083 83.7045 92.558 81.8536 92.558H79.4641V97.9488H75.2497L75.2393 81.7241ZM79.4536 89.1698H80.1647C80.5516 89.1698 80.9229 89.1698 81.2836 89.1384C81.6159 89.1226 81.9431 89.0501 82.251 88.9241C82.5347 88.8028 82.7753 88.5987 82.9411 88.3384C83.135 87.9875 83.224 87.5882 83.1974 87.1881C83.22 86.7762 83.1353 86.3654 82.9516 85.996C82.8008 85.7287 82.5705 85.5149 82.2928 85.3842C81.9887 85.2443 81.66 85.1661 81.3255 85.1542C80.956 85.1332 80.5691 85.1228 80.1647 85.1228H79.4536V89.1698Z" fill="#0B1C40"></path> <path d="M97.8635 85.8967C97.4749 85.5664 97.0352 85.3015 96.5615 85.1124C96.0863 84.9207 95.5785 84.8231 95.0661 84.8248C94.8593 84.8243 94.6535 84.8525 94.4544 84.9084C94.2476 84.9645 94.0502 85.0508 93.8687 85.1647C93.696 85.2757 93.5468 85.4196 93.4295 85.5882C93.3113 85.762 93.2509 85.9688 93.257 86.179C93.2512 86.3988 93.3194 86.6142 93.4505 86.7908C93.5833 86.9599 93.7443 87.1049 93.9263 87.2195C94.1133 87.3453 94.3153 87.4472 94.5276 87.5228C94.7419 87.6012 94.9459 87.6692 95.1289 87.7267L96.206 88.0509C96.7436 88.2149 97.2679 88.4194 97.7746 88.6627C98.2428 88.8827 98.6719 89.1777 99.0452 89.5359C99.4096 89.8875 99.6995 90.3089 99.8974 90.7751C100.119 91.3173 100.226 91.8994 100.211 92.4848C100.21 93.2893 100.09 94.0892 99.8556 94.8587C99.615 95.6412 99.1473 96.3346 98.5118 96.8508C97.8787 97.3891 97.1394 97.7882 96.3419 98.0221C95.5531 98.2584 94.734 98.3782 93.9106 98.3776C92.8908 98.3791 91.8775 98.2167 90.9093 97.8966C89.9451 97.577 89.0339 97.1153 88.2061 96.5266L90.0152 93.128C90.542 93.5858 91.1191 93.9822 91.7354 94.3097C92.3572 94.6433 93.0533 94.8141 93.7589 94.8064C94.0059 94.806 94.2519 94.7744 94.491 94.7123C94.7231 94.6502 94.9437 94.5514 95.1446 94.4195C95.3419 94.2848 95.5049 94.1057 95.6204 93.8966C95.7468 93.67 95.81 93.4135 95.8034 93.1541C95.8123 92.8776 95.715 92.6082 95.5315 92.4012C95.3433 92.1884 95.1184 92.0113 94.8674 91.8783C94.601 91.7313 94.3186 91.6155 94.0256 91.5332L93.2413 91.2927C92.6338 91.1264 92.0352 90.9292 91.4479 90.7019C90.9424 90.5133 90.4722 90.2411 90.057 89.8966C89.6636 89.5573 89.357 89.1289 89.1629 88.647C88.9356 88.0282 88.8308 87.3711 88.8544 86.7123C88.8433 85.946 88.9856 85.1851 89.2727 84.4745C89.5325 83.8248 89.9283 83.2383 90.4335 82.7542C90.9408 82.2706 91.5425 81.8968 92.2008 81.6562C92.9199 81.3894 93.6822 81.2582 94.4491 81.2693C94.8778 81.2714 95.3058 81.3029 95.7302 81.3634C96.6246 81.4953 97.5015 81.7268 98.3445 82.0536C98.7632 82.2136 99.1687 82.4059 99.5576 82.6287L97.8635 85.8967Z" fill="#0B1C40"></path> <path d="M33.2783 59.8263C44.954 61.259 57.1787 60.4851 67.1708 56.6891L33.2783 59.8263Z" fill="#0B1C40"></path> <path d="M44.0327 68.4432C40.1122 68.4395 36.1956 68.1968 32.3047 67.7164C30.2338 67.4329 28.3578 66.3454 27.0825 64.6893C25.8072 63.0333 25.2351 60.9417 25.4901 58.867C25.745 56.7924 26.8065 54.9016 28.4448 53.6035C30.0831 52.3055 32.1666 51.7047 34.2446 51.9309C45.4915 53.3113 56.1685 52.3545 64.3306 49.2434C65.3063 48.8709 66.3458 48.6942 67.3898 48.7235C68.4338 48.7527 69.4618 48.9873 70.4152 49.4138C71.3685 49.8404 72.2285 50.4505 72.946 51.2094C73.6636 51.9683 74.2246 52.8611 74.5971 53.8368C74.9696 54.8125 75.1463 55.8521 75.1171 56.8961C75.0878 57.9401 74.8532 58.9681 74.4267 59.9214C74.0002 60.8748 73.39 61.7348 72.6311 62.4523C71.8722 63.1698 70.9794 63.7309 70.0037 64.1034C62.4953 66.9687 53.5437 68.4432 44.0327 68.4432Z" fill="#0B1C40"></path> <path d="M70.5632 44.7676L60.592 45.9859L53.2666 1.77715L68.5867 0.0150757L70.5632 44.7676Z" fill="#0B1C40"></path> <path d="M51.7286 19.9835C51.3216 15.2657 49.1724 10.8685 45.6999 7.64901C43.9139 5.99402 41.8166 4.71075 39.53 3.87388C37.0132 2.96802 34.3315 2.61179 31.6654 2.82915C28.9994 3.04651 26.4108 3.83242 24.0739 5.134C23.2245 5.61657 22.4134 6.16371 21.6478 6.77058C19.7296 8.28115 18.1287 10.1558 16.937 12.2869C15.7454 14.418 14.9866 16.7635 14.7041 19.1888L15.9276 19.3979L16.3093 19.4607L20.2988 20.1247L25.9354 21.0659C26.2386 20.292 26.4582 19.6541 26.6988 19.0737C26.7097 19.0538 26.7185 19.0328 26.7249 19.011C26.7981 18.8332 26.8818 18.6607 26.9654 18.4881C27.47 17.4347 28.2401 16.5307 29.2 15.8651C30.1598 15.1996 31.2764 14.7953 32.4399 14.6921C34.171 14.5824 35.8798 15.1291 37.2258 16.2232C38.5718 17.3172 39.4562 18.8783 39.7026 20.5953C39.7026 20.6528 39.7026 20.7103 39.7026 20.7678C39.7132 20.9681 39.7132 21.1688 39.7026 21.3691C39.7026 23.9469 38.0451 25.8972 36.1575 27.4554C29.9615 32.6056 26.7144 38.2317 26.7354 48.1192L40.1313 47.6643C39.7451 45.2417 40.0271 42.7596 40.947 40.4853C41.7993 38.4827 43.3313 37.071 44.9679 35.701C47.1909 33.8529 48.9599 31.5189 50.1384 28.879C51.3169 26.2392 51.8735 23.364 51.7652 20.475C51.7547 20.3077 51.7443 20.1456 51.7286 19.9835Z" fill="#0B1C40"></path> <path d="M72.9186 56.4172C72.9681 57.5534 72.6797 58.6788 72.0898 59.6511C71.4998 60.6235 70.6348 61.3991 69.6042 61.8799C68.5735 62.3607 67.4235 62.5252 66.2993 62.3526C65.1752 62.1799 64.1275 61.6779 63.2887 60.9099C62.4498 60.1419 61.8575 59.1425 61.5865 58.038C61.3156 56.9334 61.3781 55.7733 61.7664 54.7043C62.1546 53.6353 62.851 52.7054 63.7676 52.0322C64.6842 51.3589 65.7799 50.9725 66.916 50.9218C67.6711 50.8881 68.4254 51.0035 69.1358 51.2615C69.8462 51.5195 70.4988 51.915 71.0563 52.4254C71.6138 52.9358 72.0652 53.551 72.3847 54.2359C72.7043 54.9209 72.8857 55.6621 72.9186 56.4172Z" fill="#CEF54A"></path> </svg>