<svg width="200" viewBox="0 0 78 42" fill="none" xmlns="http://www.w3.org/2000/svg"> <path d="M7.07124 14.9907C5.80166 14.9096 4.69415 15.3149 4.07286 16.0713C3.45157 16.8548 3.12742 17.8003 3.12742 18.8539V22.7171H0.777344V25.5268H3.12742V41.2499H5.88269V25.5268H8.23277V22.7171H5.88269V18.7999C5.88269 18.4217 6.01775 18.1515 6.28788 17.9354C6.61203 17.6652 7.82759 17.8543 8.55692 18.0705L8.9351 18.1785V15.477L8.80003 15.3959C8.77302 15.3959 8.20576 15.0447 7.07124 14.9907Z" fill="#1F9E69"></path> <path d="M12.9053 23.96V22.7173H10.2041V41.25H12.9053V30.4978C12.9053 29.3631 12.9864 27.5261 13.7697 26.6346C15.0663 25.1217 17.0923 25.4459 17.1733 25.4729L17.5245 25.5269V22.8253L17.2814 22.7713C17.1733 22.7443 14.7422 22.3391 12.9053 23.96Z" fill="#1F9E69"></path> <path d="M27.0329 34.658C27.0329 34.685 27.141 36.5761 26.0875 37.6838C25.5473 38.2511 24.7909 38.5213 23.8455 38.4943C23.1432 38.4672 22.5489 38.2241 22.0897 37.7108C20.9011 36.387 20.8741 33.8205 20.8741 32.956H29.7882V31.9835C29.7882 28.7956 29.437 26.7695 28.6807 25.3647C27.7623 23.6897 26.1415 22.7441 24.1426 22.7441C22.1707 22.7441 20.55 23.6357 19.4695 25.3106C18.2269 27.2017 18.1729 29.363 18.0648 31.8754C18.0108 33.7935 18.1729 35.5225 18.551 36.9814C18.9292 38.3592 19.6856 39.4938 20.8201 40.2503C21.7655 40.8986 22.9 41.2228 24.0616 41.2228C24.1426 41.2228 24.2237 41.2228 24.3047 41.2228C25.5473 41.1688 26.7628 40.7365 27.6812 39.9801C28.7077 39.1426 29.383 37.9539 29.6261 36.5761C29.7342 35.9548 29.7882 35.3064 29.8152 34.631V34.3338H26.9789L27.0329 34.658ZM21.0362 29.1468C21.1172 28.4985 21.3063 27.8771 21.5494 27.3098C21.6305 27.1477 22.2788 25.6618 23.8725 25.5267C24.4398 25.4727 24.953 25.6348 25.4662 25.959C26.1415 26.4183 26.5737 27.1477 26.7358 28.0122C26.7628 28.2283 26.8168 28.4715 26.8439 28.7956C26.8979 29.2009 26.9249 29.7142 26.9519 30.2275H20.9011C20.9551 29.8493 20.9822 29.444 21.0362 29.1468Z" fill="#1F9E69"></path> <path d="M38.9189 30.9552L36.1366 29.9016C35.3802 29.5504 34.7049 28.9831 34.5699 27.9565C34.4888 27.4432 34.6239 26.7678 35.0561 26.2545C35.3262 25.9303 35.9205 25.4171 36.8119 25.4981C37.4332 25.5521 37.9464 25.8223 38.2976 26.2545C39.189 27.3352 38.9729 29.1992 38.9729 29.2262L38.9459 29.5504H41.7012L41.7282 29.2803C41.7282 29.2263 41.8632 28.0105 41.5391 26.6598C41.1069 24.7957 40.0264 23.553 38.4597 23.0397C37.1631 22.6344 35.9745 22.6344 34.786 23.0937C33.9216 23.4179 33.0842 24.0933 32.598 24.8497C31.7876 26.0384 31.5175 27.4432 31.8146 28.767C32.1387 30.1448 33.0031 31.3064 34.2997 32.0629C34.7319 32.306 36.947 33.3056 37.5142 33.4677C38.2165 33.6838 38.6487 34.1431 38.9189 34.5753C39.4591 35.4939 39.4051 36.6555 38.7838 37.52C38.3516 38.1144 37.5953 38.6007 36.2716 38.4386C36.2716 38.4386 35.3262 38.3845 34.6509 37.6011C34.0566 36.9257 33.8135 35.9531 33.9216 34.6564L33.9486 34.3322H31.1393L31.1123 34.6024C30.9772 36.3854 31.3284 37.8442 32.1117 38.9519C32.706 39.7893 33.5434 40.4377 34.5969 40.8159C35.2452 41.0591 35.9475 41.1942 36.6498 41.1942C37.5142 41.1942 38.3786 41.0051 39.162 40.5998C40.9448 39.7083 41.6741 38.1414 41.8902 37.52C42.2144 36.6015 42.2954 35.4128 42.1063 34.4943C41.7822 32.9544 40.8097 31.8468 38.9189 30.9552Z" fill="#1F9E69"></path> <path d="M49.2097 22.6353C48.2373 22.6083 47.589 22.6353 46.3194 23.2837V14.9629H43.5371V41.2221H46.3194V28.7949C46.2654 27.1469 46.8326 26.0393 47.9401 25.607C48.6425 25.3369 49.4258 25.3639 50.0741 25.7151C50.6144 25.9853 51.0196 26.4715 51.2627 27.0389C51.4518 27.5252 51.5328 28.0385 51.5328 28.6058V41.2221H54.3151V28.4437C54.3151 27.255 54.0179 26.0663 53.4507 25.1208C53.4237 25.0397 51.992 22.7164 49.2097 22.6353Z" fill="#1F9E69"></path> <path d="M58.8008 22.7441H56.0186V41.2228H58.8008V22.7441Z" fill="#1F9E69"></path> <path d="M57.3954 14.9629C56.396 14.9629 55.5586 15.7734 55.5586 16.8C55.5586 17.7995 56.369 18.637 57.3954 18.637C58.3949 18.637 59.2323 17.8265 59.2323 16.8C59.2323 15.7734 58.4219 14.9629 57.3954 14.9629Z" fill="#1F9E69"></path> <path d="M63.6885 22.7441H60.9062V41.2228H63.6885V22.7441Z" fill="#1F9E69"></path> <path d="M62.3124 18.637C63.3119 18.637 64.1493 17.8265 64.1493 16.8C64.1493 15.8004 63.3389 14.9629 62.3124 14.9629C61.313 14.9629 60.4756 15.7734 60.4756 16.8C60.4756 17.7995 61.313 18.637 62.3124 18.637Z" fill="#1F9E69"></path> <path d="M48.9945 8.15431C49.1295 8.20834 49.2916 8.28939 49.3996 8.37044C49.3186 8.23536 49.2376 8.10028 49.1565 7.9652L47.8059 5.56081L48.4002 4.93945L50.3181 8.61358L49.6968 9.26195L45.915 7.55997L46.5093 6.93861L48.9945 8.15431Z" fill="black"></path> <path d="M49.9121 3.887L50.6144 3.42773L52.7754 6.69662L52.0731 7.15589L49.9121 3.887Z" fill="black"></path> <path d="M53.4512 2.75084L52.3437 3.18309L52.1006 2.53472L55.126 1.37305L55.3691 2.02142L54.2616 2.45367L55.4231 5.47942L54.6397 5.77659L53.4512 2.75084Z" fill="black"></path> <path d="M59.0431 3.85941L57.6385 4.0215L57.4494 4.886L56.585 4.96705L57.5304 0.914702L58.4218 0.806641L60.2317 4.56181L59.3673 4.64286L59.0431 3.85941ZM58.773 3.26506L58.2597 2.15742C58.2057 2.04936 58.1517 1.86025 58.0977 1.72517H58.0707C58.0707 1.88726 58.0166 2.04936 57.9896 2.18444L57.7465 3.37312L58.773 3.26506Z" fill="black"></path> <path d="M65.1472 5.56139L64.3369 5.37228L64.8231 3.37312C64.8771 3.21103 64.9311 2.96789 64.9581 2.91386H64.9311C64.9041 2.96789 64.7961 3.157 64.715 3.23805L63.2834 5.15615L62.8512 5.04809L62.419 2.67072C62.392 2.50862 62.392 2.34653 62.392 2.31951H62.3649C62.3649 2.34653 62.3379 2.61669 62.2839 2.77878L61.7977 4.80495L60.9873 4.61584L61.9057 0.806641L62.7701 1.02277L63.2293 3.26506C63.2834 3.53522 63.3374 3.91344 63.3374 3.99448H63.3644C63.3914 3.91344 63.6345 3.61626 63.7966 3.37312L65.2013 1.56308L66.0657 1.7792L65.1472 5.56139Z" fill="black"></path> <path d="M68.1728 2.83203L68.9021 3.23727L66.9842 6.64124L66.2549 6.236L68.1728 2.83203Z" fill="black"></path> <path d="M70.5503 9.64078L69.983 9.07345L70.3882 6.83116C70.4422 6.561 70.5233 6.15577 70.5773 5.99367H70.5503C70.4962 6.07472 70.3072 6.29084 70.0911 6.53398L68.7945 7.91178L68.2002 7.34445L70.9014 4.50781L71.4417 5.02111L71.0365 7.37147C70.9825 7.72267 70.8744 8.07387 70.8474 8.20895H70.8744C70.9284 8.12791 71.1175 7.88476 71.3606 7.66864L72.7113 6.23681L73.3055 6.80414L70.5503 9.64078Z" fill="black"></path> <path d="M75.5748 14.0179C74.7104 14.3421 74.0351 13.9098 73.7109 13.0994L73.4678 12.478L72.4143 12.8832L72.1172 12.0998L75.7639 10.668L76.2771 11.9917C76.6553 12.9373 76.4392 13.6667 75.5748 14.0179ZM75.2776 13.2074C75.6828 13.0453 75.8449 12.6671 75.6288 12.1268L75.4397 11.6946L74.0891 12.2079L74.2782 12.6941C74.4943 13.2074 74.8184 13.3965 75.2776 13.2074Z" fill="black"></path> <path d="M74.3862 17.5561L74.2511 16.1513L73.3867 15.9622L73.3057 15.0977L77.3575 16.0702L77.4386 16.9617L73.6838 18.7448L73.6028 17.8803L74.3862 17.5561ZM75.0074 17.3129L76.115 16.8267C76.223 16.7726 76.4121 16.7186 76.5472 16.6646V16.6375C76.3851 16.6375 76.223 16.5835 76.0879 16.5565L74.8994 16.2863L75.0074 17.3129Z" fill="black"></path> <path d="M75.4666 23.0143L75.4936 22.2309C75.8448 22.2849 76.358 22.1769 76.4661 21.5825C76.5741 21.0152 76.1959 20.5019 75.4126 20.3668C74.5212 20.2047 74.062 20.664 73.9539 21.2313C73.8729 21.7176 74.116 22.1228 74.3321 22.3119L73.7378 22.7172C73.5217 22.501 73.1165 21.9337 73.2516 21.0692C73.4677 19.9346 74.3591 19.2862 75.5747 19.5293C76.7902 19.7455 77.4115 20.664 77.1954 21.7176C76.9793 22.8523 76.0879 23.1224 75.4666 23.0143Z" fill="black"></path> <path d="M73.5483 25.0128L73.7374 24.6346L72.3598 23.9322L72.738 23.1758L76.2496 24.9318L75.8714 25.6882L74.3317 24.9318L74.1696 25.256L75.1961 27.012L74.7909 27.7955L73.6024 25.6882L71.2793 26.0394L71.6845 25.256L73.5483 25.0128Z" fill="black"></path> <path d="M72.4422 29.7129C72.6853 29.4428 72.7123 29.1726 72.4962 28.9835C71.956 28.4972 70.9025 30.2803 69.795 29.3077C69.3358 28.9025 69.3088 28.2 69.9841 27.4706C70.5243 26.8763 71.1726 26.6872 71.4428 26.6602L71.5508 27.4436C71.3077 27.4706 70.7945 27.5787 70.4703 27.9569C70.2002 28.2811 70.1462 28.5242 70.3353 28.6863C70.9295 29.1996 71.983 27.4166 73.0095 28.3351C73.4957 28.7674 73.4957 29.5508 72.9555 30.1722C72.2531 30.9556 71.5778 30.7936 71.2267 30.5774L71.6048 29.902C71.7669 29.9831 72.1181 30.0371 72.4422 29.7129Z" fill="black"></path> </svg>