<svg version="1.0" xmlns="http://www.w3.org/2000/svg" width="3839.000000pt" height="673.000000pt" viewBox="0 0 3839.000000 673.000000" preserveAspectRatio="xMidYMid meet" style="enable-background:new 0 0 524.5 134.5;">


<svg xmlns="http://www.w3.org/2000/svg" xmlns:xlink="http://www.w3.org/1999/xlink" viewBox="0 0 283.46 56.69">

<path fill="#fff" d="M257.86,30.81c-0.48,0-0.17-0.34-0.03-0.75l3.54-15.2c0.14-0.82,0.82-0.75,0.95,0l3.48,15.2
	c0.07,0.41-0.58,0.75-1.06,0.75H257.86z M251.25,52.41c0.61,0,0.95-0.34,1.09-0.89l2.59-11.11c0.07-0.34,0.34-0.61,0.75-0.61h11.24
	c0.41,0,0.68,0.27,0.75,0.61l2.59,11.11c0.14,0.55,0.99,0.89,1.61,0.89h8.11c0.68,0,1.09-0.41,0.89-1.16L268.87,4.78
	c-0.14-0.55-0.48-0.89-1.09-0.89h-11.79c-0.61,0-0.95,0.34-1.09,0.89l-11.99,46.48c-0.2,0.75,0.2,1.16,0.89,1.16H251.25z
	 M231.9,52.41c0.61,0,0.95-0.34,1.09-0.89l11.86-46.48c0.2-0.75-0.2-1.16-0.89-1.16h-8.9c-0.61,0-0.95,0.34-1.09,0.89l-7.8,36.32
	c-0.14,0.75-0.82,0.75-0.95,0L216.9,4.78c-0.14-0.55-0.48-0.89-1.09-0.89h-8.52c-0.68,0-1.09,0.41-0.89,1.16l11.86,46.48
	c0.14,0.55,0.48,0.89,1.09,0.89H231.9z M182.42,43.39c-1.23,0-1.98-0.75-1.98-1.98V14.89c0-1.23,0.75-1.98,1.98-1.98h8.93
	c1.23,0,1.98,0.75,1.98,1.98v26.52c0,1.23-0.75,1.98-1.98,1.98H182.42z M191.62,52.41c7.5,0,11.14-4.16,11.14-11.65V15.54
	c0-7.5-3.64-11.65-11.14-11.65h-9.47c-7.5,0-11.14,4.16-11.14,11.65v25.22c0,7.5,3.64,11.65,11.14,11.65H191.62z M134.47,52.41
	c0.61,0,1.02-0.41,1.02-1.02v-7.5c0-0.61-0.41-1.02-1.02-1.02h-15.91c-0.41,0-0.68-0.27-0.68-0.68l-0.52-37.28
	c0-0.61-0.41-1.02-1.02-1.02h-7.91c-0.61,0-1.02,0.41-1.02,1.02l0.52,46.48c0,0.61,0.41,1.02,1.02,1.02H134.47z M95.9,52.41
	c0.61,0,1.02-0.41,1.02-1.02V4.91c0-0.61-0.41-1.02-1.02-1.02h-7.91c-0.61,0-1.02,0.41-1.02,1.02v46.48c0,0.61,0.41,1.02,1.02,1.02
	H95.9z M52.79,52.41c0.61,0,1.02-0.41,1.02-1.02V33.6c0-0.41,0.27-0.68,0.68-0.68h11.86c0.41,0,0.68,0.27,0.68,0.68v17.79
	c0,0.61,0.41,1.02,1.02,1.02h7.91c0.61,0,1.02-0.41,1.02-1.02V4.91c0-0.61-0.41-1.02-1.02-1.02h-7.91c-0.61,0-1.02,0.41-1.02,1.02
	V22.7c0,0.41-0.27,0.68-0.68,0.68H54.5c-0.41,0-0.68-0.27-0.68-0.68V4.91c0-0.61-0.41-1.02-1.02-1.02h-7.91
	c-0.61,0-1.02,0.41-1.02,1.02v46.48c0,0.61,0.41,1.02,1.02,1.02H52.79z M35.41,52.41c0.61,0,1.02-0.41,1.02-1.02V44.1
	c0-0.61-0.41-1.02-1.02-1.02H17.14c-0.55,0-0.68-0.34-0.41-0.82l19.08-29.51c0.27-0.41,0.41-0.75,0.41-1.23V4.91
	c0-0.61-0.41-1.02-1.02-1.02H6.47c-0.61,0-1.02,0.41-1.02,1.02v7.29c0,0.61,0.41,1.02,1.02,1.02h17.55c0.55,0,0.68,0.34,0.41,0.82
	L4.84,43.55c-0.27,0.41-0.41,0.75-0.41,1.23v6.61c0,0.61,0.41,1.02,1.02,1.02H35.41z M152.7,52.41c0.61,0,1.02-0.41,1.02-1.02V34.63
	c0-0.48,0.14-0.89,0.34-1.29l14.99-28.21c0.34-0.68,0-1.23-0.75-1.23h-8.79c-0.55,0-0.89,0.27-1.16,0.75l-8.79,18.13
	c-0.27,0.61-0.82,0.61-1.09,0l-8.86-18.13c-0.27-0.48-0.61-0.75-1.16-0.75h-9.27c-0.75,0-1.09,0.55-0.75,1.23l14.99,28.21
	c0.2,0.41,0.34,0.82,0.34,1.29v16.77c0,0.61,0.41,1.02,1.02,1.02H152.7z"></path>
</svg>


                    </svg>